HIERARCHY
ROOT Hips
{
	OFFSET 0.00000 0.00000 0.00000
	CHANNELS 6 Xposition Yposition Zposition Zrotation Yrotation Xrotation 
	JOINT LHipJoint
	{
		OFFSET 0 0 0
		CHANNELS 3 Zrotation Yrotation Xrotation
		JOINT LeftHip
		{
			OFFSET 1.85590 -1.73949 0.84976
			CHANNELS 3 Zrotation Yrotation Xrotation
			JOINT LeftKnee
			{
				OFFSET 2.36836 -6.50702 0.00000
				CHANNELS 3 Zrotation Yrotation Xrotation
				JOINT LeftAnkle
				{
					OFFSET 2.53268 -6.95849 0.00000
					CHANNELS 3 Zrotation Yrotation Xrotation
					JOINT LeftToe
					{
						OFFSET 0.15935 -0.43781 1.94506
						CHANNELS 3 Zrotation Yrotation Xrotation
						End Site
						{
							OFFSET 0.00000 -0.00000 1.00661
						}
					}
				}
			}
		}
	}
	JOINT RHipJoint
	{
		OFFSET 0 0 0
		CHANNELS 3 Zrotation Yrotation Xrotation
		JOINT RightHip
		{
			OFFSET -1.68297 -1.73949 0.84976
			CHANNELS 3 Zrotation Yrotation Xrotation
			JOINT RightKnee
			{
				OFFSET -2.44709 -6.72334 0.00000
				CHANNELS 3 Zrotation Yrotation Xrotation
				JOINT RightAnkle
				{
					OFFSET -2.43843 -6.69953 0.00000
					CHANNELS 3 Zrotation Yrotation Xrotation
					JOINT RightToe
					{
						OFFSET -0.20854 -0.57295 2.02172
						CHANNELS 3 Zrotation Yrotation Xrotation
						End Site
						{
							OFFSET -0.00000 -0.00000 1.05594
						}
					}
				}
			}
		}
	}
	JOINT lowerback
	{
		OFFSET 0 0 0
		CHANNELS 3 Zrotation Yrotation Xrotation
		JOINT Chest
		{
			OFFSET -0.01560 2.23971 -0.03712
			CHANNELS 3 Zrotation Yrotation Xrotation
			JOINT Chest2
			{
				OFFSET 0.05490 2.19225 -0.19086
				CHANNELS 3 Zrotation Yrotation Xrotation
				JOINT lowerneck
				{
					OFFSET 0 0 0
					CHANNELS 3 Zrotation Yrotation Xrotation
					JOINT Neck
					{
						OFFSET -0.12403 1.43168 0.27585
						CHANNELS 3 Zrotation Yrotation Xrotation
						JOINT Head
						{
							OFFSET 0.17855 1.46173 -0.32578
							CHANNELS 3 Zrotation Yrotation Xrotation
							End Site
							{
								OFFSET 0.07217 1.51590 -0.14537
							}
						}
					}
				}
				JOINT LeftCollar
				{
					OFFSET 0 0 0
					CHANNELS 3 Zrotation Yrotation Xrotation
					JOINT LeftShoulder
					{
						OFFSET 3.27650 0.85634 0.05396
CHANNELS 3 Zrotation Xrotation Yrotation
						JOINT LeftElbow
						{
OFFSET 0 -4.967550 0.000000
CHANNELS 3 Zrotation Xrotation Yrotation
							JOINT LeftWrist
							{
OFFSET 0 -3.357510 0.000000
CHANNELS 3 Zrotation Xrotation Yrotation
								JOINT lhand
								{
									OFFSET 0 0 0
CHANNELS 3 Zrotation Xrotation Yrotation
									JOINT LFingers
									{
OFFSET 0 -0.796970 0.000000
CHANNELS 3 Zrotation Xrotation Yrotation
										End Site
										{
OFFSET 0 -0.642540 0.000000
										}
									}
								}
								JOINT LThumb
								{
OFFSET 0 0.000000 0.000000
CHANNELS 3 Zrotation Xrotation Yrotation
									End Site
									{
OFFSET 0 -0.652350 0.652350
									}
								}
							}
						}
					}
				}
				JOINT RightCollar
				{
					OFFSET 0 0 0
					CHANNELS 3 Zrotation Yrotation Xrotation
					JOINT RightShoulder
					{
						OFFSET -3.24434 1.02034 0.34688
CHANNELS 3 Zrotation Xrotation Yrotation
						JOINT RightElbow
						{
OFFSET 0 -5.218590 -0.000000
CHANNELS 3 Zrotation Xrotation Yrotation
							JOINT RightWrist
							{
OFFSET 0 -3.365040 0.000000
CHANNELS 3 Zrotation Xrotation Yrotation
								JOINT rhand
								{
									OFFSET 0 0 0
CHANNELS 3 Zrotation Xrotation Yrotation
									JOINT RFingers
									{
OFFSET 0 -0.620440 0.000000
CHANNELS 3 Zrotation Xrotation Yrotation
										End Site
										{
OFFSET 0 -0.500220 0.000000
										}
									}
								}
								JOINT RThumb
								{
OFFSET 0 0.000000 0.000000
CHANNELS 3 Zrotation Xrotation Yrotation
									End Site
									{
OFFSET 0 -0.507860 0.507860
									}
								}
							}
						}
					}
				}
			}
		}
	}
}
MOTION
Frames: 5
Frame Time: 0.008333333333333333
7.465900 15.993700 -36.732100 -3.667800 1.314900 7.113600 0.000000 0.000000 0.000000 -11.487800 -6.688400 -40.654100 5.307100 13.721500 42.133200 0.647500 2.923500 -16.539100 0.393300 -4.027000 -11.152600 0.000000 0.000000 0.000000 29.992300 7.817800 -7.703200 -1.623900 -8.034300 22.818200 -0.000000 -0.000000 0.000000 -0.000000 -0.000000 0.000000 0.939400 0.189400 -4.299100 2.557000 0.185200 -1.518900 2.107100 0.096000 0.845100 -13.337600 -5.174100 -18.657900 16.923600 -6.631100 13.679700 7.170300 -2.281900 8.389900 0.000000 0.000000 0.000000 4.805900 5.994300 -30.713300 14.533300 -23.491900 3.037500 14.405100 -12.888700 22.369700 0.000000 0.000000 0.000000 -7.125000 0.000000 0.000000 -9.087800 7.197000 -7.981400 0.000000 0.000000 0.000000 -15.638100 8.000900 42.288800 -36.754600 -46.025100 -16.063200 -36.001300 -13.773500 21.317700 0.000000 0.000000 0.000000 7.125000 0.000000 -0.000000 -8.020700 55.551700 2.086900
7.469260 15.991288 -36.626833 -3.460969 1.195936 6.992999 0.000000 0.000000 0.000000 -11.569206 -7.055975 -40.501798 4.880172 13.244954 40.297136 0.640006 2.525431 -16.237081 0.382187 -3.969973 -10.992115 0.000000 0.000000 0.000000 29.840601 7.802122 -6.978474 -1.586428 -7.945400 22.548312 0.000000 0.000000 0.000000 0.000000 0.000000 0.000000 0.721629 0.133665 -4.066857 2.429852 0.131188 -1.712292 2.094437 0.070415 0.518357 -12.931347 -4.978554 -18.357517 16.643203 -6.479487 13.939078 7.025579 -2.222719 8.369570 0.000000 0.000000 0.000000 4.890148 6.587312 -30.749566 14.635552 -23.635846 3.078332 14.419744 -13.084763 22.921622 0.000000 0.000000 0.000000 -7.125000 0.000000 0.000000 -9.104856 6.639910 -8.096402 0.000000 0.000000 0.000000 -15.475289 8.399142 42.470218 -37.402572 -46.452631 -16.531476 -35.572305 -14.533200 22.137959 0.000000 0.000000 0.000000 7.125000 0.000000 0.000000 -7.458527 56.396338 2.090518
7.469005 15.984250 -36.524818 -3.422857 1.063887 7.046899 0.000000 0.000000 0.000000 -11.396811 -7.398972 -40.660186 4.514111 12.811418 38.672150 0.643210 2.073363 -16.042191 0.354087 -3.821792 -10.575949 0.000000 0.000000 0.000000 29.874969 7.882369 -6.311867 -1.530377 -7.810091 22.138838 0.000000 0.000000 0.000000 0.000000 0.000000 0.000000 0.576362 0.185277 -4.190845 2.428267 0.204329 -1.761038 2.178205 0.107721 0.534617 -12.659548 -4.930691 -18.436859 16.477308 -6.492978 14.324525 6.928639 -2.220140 8.497067 0.000000 0.000000 0.000000 4.817606 6.638388 -30.811567 14.558533 -23.527437 3.047528 14.125289 -12.793972 23.188299 0.000000 0.000000 0.000000 -7.125000 0.000000 0.000000 -9.300824 6.409051 -8.317738 0.000000 0.000000 0.000000 -15.427631 8.526018 42.422486 -38.051628 -46.870908 -17.003729 -34.810572 -15.693082 22.804102 0.000000 0.000000 0.000000 7.125000 0.000000 0.000000 -6.502028 56.976838 1.910238
7.471914 15.978895 -36.420155 -3.576484 0.893572 7.116486 0.000000 0.000000 0.000000 -11.086426 -7.582182 -40.842954 4.156561 12.361178 37.028961 0.613815 2.068281 -15.689739 0.341896 -3.757048 -10.394222 0.000000 0.000000 0.000000 30.080388 7.809743 -5.704372 -1.472811 -7.668283 21.711196 0.000000 0.000000 0.000000 0.000000 0.000000 0.000000 0.701329 0.363341 -4.464687 2.521276 0.428638 -1.730638 2.216943 0.219310 0.711518 -13.161552 -5.115644 -18.132995 16.649180 -6.659829 14.123946 7.049398 -2.327391 8.428586 0.000000 0.000000 0.000000 4.663356 6.561567 -31.436631 14.561673 -23.531983 3.048801 13.386583 -12.502236 23.051467 0.000000 0.000000 0.000000 -7.125000 0.000000 0.000000 -9.754524 6.636419 -8.690692 0.000000 0.000000 0.000000 -15.514233 8.585976 42.218409 -38.554757 -47.189249 -17.371685 -34.624115 -16.570207 23.158892 0.000000 0.000000 0.000000 7.125000 0.000000 0.000000 -6.241461 57.336849 1.891150
7.480307 15.976543 -36.310017 -3.711259 0.672107 7.095185 0.000000 0.000000 0.000000 -10.822639 -7.764633 -40.837740 3.809460 11.897677 35.377382 0.575653 2.350402 -15.377939 0.332287 -3.704058 -10.245611 0.000000 0.000000 0.000000 30.232029 7.579178 -5.018669 -1.410910 -7.512098 21.242029 0.000000 0.000000 0.000000 0.000000 0.000000 0.000000 0.848605 0.463471 -4.695555 2.609936 0.546510 -1.621336 2.234071 0.277148 0.948980 -13.706227 -5.178554 -17.961075 16.996426 -6.656452 13.869670 7.264830 -2.336142 8.346562 0.000000 0.000000 0.000000 4.517460 6.557913 -32.180427 14.721117 -23.755860 3.112988 12.841173 -12.538120 22.541829 0.000000 0.000000 0.000000 -7.125000 0.000000 0.000000 -10.074479 7.211748 -8.871147 0.000000 0.000000 0.000000 -15.651102 8.466411 42.311188 -38.966868 -47.445163 -17.674613 -34.850273 -16.961703 23.691062 0.000000 0.000000 0.000000 7.125000 0.000000 0.000000 -6.432531 57.996830 2.053580
